<?xml version="1.0" standalone="no"?>
<!DOCTYPE svg PUBLIC "-//W3C//DTD SVG 20010904//EN"
 "http://www.w3.org/TR/2001/REC-SVG-20010904/DTD/svg10.dtd">
<svg version="1.0" xmlns="http://www.w3.org/2000/svg"
 width="64.000000pt" height="64.000000pt" viewBox="0 0 64.000000 64.000000"
 preserveAspectRatio="xMidYMid meet">
<metadata>
Created by potrace 1.11, written by Peter Selinger 2001-2013
</metadata>
<g transform="translate(0.000000,64.000000) scale(0.100000,-0.100000)"
fill="#000000" stroke="none">
<path d="M230 601 c-84 -18 -158 -77 -202 -161 -32 -62 -32 -185 0 -247 56
-108 140 -161 262 -167 164 -7 263 47 325 179 23 47 26 151 6 208 -21 63 -84
132 -147 163 -44 21 -73 28 -133 30 -42 2 -92 -1 -111 -5z m223 -155 c66 -28
99 -87 98 -174 0 -69 -25 -118 -74 -150 -38 -25 -48 -27 -157 -27 -110 0 -119
1 -158 27 -49 33 -71 71 -76 134 -7 91 29 159 98 190 42 18 226 19 269 0z"/>
<path d="M180 423 c-51 -27 -74 -74 -73 -151 0 -68 14 -97 67 -136 24 -18 42
-21 144 -21 106 0 120 2 150 23 43 31 63 73 64 135 2 61 -21 113 -60 142 -39
29 -240 34 -292 8z m254 -99 c3 -9 6 -46 6 -84 0 -53 -4 -69 -16 -74 -9 -3
-60 -6 -114 -6 -80 0 -99 3 -104 16 -8 21 -8 149 1 157 3 4 55 7 114 7 88 0
108 -3 113 -16z"/>
<path d="M283 322 l-63 -3 0 -69 0 -70 100 0 100 0 0 69 0 69 -37 3 c-21 2
-66 3 -100 1z"/>
</g>
</svg>
